<mxfile host="app.diagrams.net" agent="Mozilla/5.0 (X11; Linux x86_64; rv:130.0) Gecko/20100101 Firefox/130.0" version="24.7.14">
  <diagram name="Page-1" id="ZdygHhgGOwG1yxJXcHg-">
    <mxGraphModel dx="5953" dy="2169" grid="1" gridSize="10" guides="1" tooltips="1" connect="1" arrows="1" fold="1" page="1" pageScale="1" pageWidth="850" pageHeight="1100" math="0" shadow="0">
      <root>
        <mxCell id="0" />
        <mxCell id="1" parent="0" />
        <mxCell id="__hJ2sdx3PHw_z6o85Sw-31" value="" style="edgeStyle=orthogonalEdgeStyle;rounded=0;orthogonalLoop=1;jettySize=auto;html=1;movable=0;resizable=0;rotatable=0;deletable=0;editable=0;locked=1;connectable=0;" edge="1" parent="1" source="__hJ2sdx3PHw_z6o85Sw-10" target="__hJ2sdx3PHw_z6o85Sw-18">
          <mxGeometry relative="1" as="geometry" />
        </mxCell>
        <mxCell id="__hJ2sdx3PHw_z6o85Sw-32" value="&lt;div&gt;&lt;font style=&quot;font-size: 18px;&quot;&gt;Button&lt;/font&gt;&lt;/div&gt;" style="edgeLabel;html=1;align=center;verticalAlign=middle;resizable=0;points=[];movable=0;rotatable=0;deletable=0;editable=0;locked=1;connectable=0;" vertex="1" connectable="0" parent="__hJ2sdx3PHw_z6o85Sw-31">
          <mxGeometry x="-0.232" y="2" relative="1" as="geometry">
            <mxPoint x="20" y="1" as="offset" />
          </mxGeometry>
        </mxCell>
        <mxCell id="__hJ2sdx3PHw_z6o85Sw-10" value="" style="rounded=1;whiteSpace=wrap;html=1;movable=0;resizable=0;rotatable=0;deletable=0;editable=0;locked=1;connectable=0;" vertex="1" parent="1">
          <mxGeometry x="40" y="206.25" width="170" height="80" as="geometry" />
        </mxCell>
        <mxCell id="__hJ2sdx3PHw_z6o85Sw-8" value="&lt;font style=&quot;font-size: 24px;&quot;&gt;dashboard&lt;/font&gt;" style="text;html=1;align=center;verticalAlign=middle;whiteSpace=wrap;rounded=0;movable=0;resizable=0;rotatable=0;deletable=0;editable=0;locked=1;connectable=0;" vertex="1" parent="1">
          <mxGeometry x="100" y="230" width="60" height="30" as="geometry" />
        </mxCell>
        <mxCell id="__hJ2sdx3PHw_z6o85Sw-22" value="" style="edgeStyle=orthogonalEdgeStyle;rounded=0;orthogonalLoop=1;jettySize=auto;html=1;movable=0;resizable=0;rotatable=0;deletable=0;editable=0;locked=1;connectable=0;" edge="1" parent="1" source="__hJ2sdx3PHw_z6o85Sw-17" target="__hJ2sdx3PHw_z6o85Sw-21">
          <mxGeometry relative="1" as="geometry" />
        </mxCell>
        <mxCell id="__hJ2sdx3PHw_z6o85Sw-17" value="" style="rounded=1;whiteSpace=wrap;html=1;movable=0;resizable=0;rotatable=0;deletable=0;editable=0;locked=1;connectable=0;" vertex="1" parent="1">
          <mxGeometry x="480" y="213.75" width="195" height="62.5" as="geometry" />
        </mxCell>
        <mxCell id="__hJ2sdx3PHw_z6o85Sw-18" value="&lt;div&gt;&lt;font style=&quot;font-size: 24px;&quot;&gt;Loader page&lt;/font&gt;&lt;/div&gt;" style="text;html=1;align=center;verticalAlign=middle;whiteSpace=wrap;rounded=0;movable=0;resizable=0;rotatable=0;deletable=0;editable=0;locked=1;connectable=0;" vertex="1" parent="1">
          <mxGeometry x="500" y="232.5" width="140" height="30" as="geometry" />
        </mxCell>
        <mxCell id="__hJ2sdx3PHw_z6o85Sw-24" value="" style="edgeStyle=orthogonalEdgeStyle;rounded=0;orthogonalLoop=1;jettySize=auto;html=1;movable=0;resizable=0;rotatable=0;deletable=0;editable=0;locked=1;connectable=0;" edge="1" parent="1" source="__hJ2sdx3PHw_z6o85Sw-21" target="__hJ2sdx3PHw_z6o85Sw-23">
          <mxGeometry relative="1" as="geometry" />
        </mxCell>
        <mxCell id="__hJ2sdx3PHw_z6o85Sw-25" value="&lt;font style=&quot;font-size: 18px;&quot;&gt;NO&lt;/font&gt;" style="edgeLabel;html=1;align=center;verticalAlign=middle;resizable=0;points=[];movable=0;rotatable=0;deletable=0;editable=0;locked=1;connectable=0;" vertex="1" connectable="0" parent="__hJ2sdx3PHw_z6o85Sw-24">
          <mxGeometry x="-0.0721" y="1" relative="1" as="geometry">
            <mxPoint as="offset" />
          </mxGeometry>
        </mxCell>
        <mxCell id="__hJ2sdx3PHw_z6o85Sw-30" value="" style="edgeStyle=orthogonalEdgeStyle;rounded=0;orthogonalLoop=1;jettySize=auto;html=1;movable=0;resizable=0;rotatable=0;deletable=0;editable=0;locked=1;connectable=0;" edge="1" parent="1" source="__hJ2sdx3PHw_z6o85Sw-21" target="__hJ2sdx3PHw_z6o85Sw-29">
          <mxGeometry relative="1" as="geometry">
            <Array as="points">
              <mxPoint x="1080" y="244.75" />
              <mxPoint x="1080" y="244.75" />
            </Array>
          </mxGeometry>
        </mxCell>
        <mxCell id="__hJ2sdx3PHw_z6o85Sw-38" value="&lt;font style=&quot;font-size: 18px;&quot;&gt;YES&lt;/font&gt;" style="edgeLabel;html=1;align=center;verticalAlign=middle;resizable=0;points=[];movable=0;rotatable=0;deletable=0;editable=0;locked=1;connectable=0;" vertex="1" connectable="0" parent="__hJ2sdx3PHw_z6o85Sw-30">
          <mxGeometry x="-0.0805" y="1" relative="1" as="geometry">
            <mxPoint as="offset" />
          </mxGeometry>
        </mxCell>
        <mxCell id="__hJ2sdx3PHw_z6o85Sw-21" value="&lt;div&gt;Received success&amp;nbsp;&lt;/div&gt;&lt;div&gt;socket message before 30 seconds?&lt;/div&gt;" style="rhombus;whiteSpace=wrap;html=1;movable=0;resizable=0;rotatable=0;deletable=0;editable=0;locked=1;connectable=0;" vertex="1" parent="1">
          <mxGeometry x="805" y="160" width="170" height="170" as="geometry" />
        </mxCell>
        <mxCell id="__hJ2sdx3PHw_z6o85Sw-23" value="&lt;div&gt;&lt;font style=&quot;font-size: 24px;&quot;&gt;Timeout page&lt;/font&gt;&lt;/div&gt;" style="rounded=1;whiteSpace=wrap;html=1;movable=0;resizable=0;rotatable=0;deletable=0;editable=0;locked=1;connectable=0;" vertex="1" parent="1">
          <mxGeometry x="930" y="433.75" width="230" height="70" as="geometry" />
        </mxCell>
        <mxCell id="__hJ2sdx3PHw_z6o85Sw-29" value="&lt;div&gt;&lt;font style=&quot;font-size: 24px;&quot;&gt;New Page&lt;/font&gt;&lt;/div&gt;" style="rounded=1;whiteSpace=wrap;html=1;movable=0;resizable=0;rotatable=0;deletable=0;editable=0;locked=1;connectable=0;" vertex="1" parent="1">
          <mxGeometry x="1220" y="210.94" width="220" height="68.12" as="geometry" />
        </mxCell>
        <mxCell id="__hJ2sdx3PHw_z6o85Sw-39" value="&lt;font style=&quot;font-size: 36px;&quot;&gt;USER JORNEY&lt;/font&gt;" style="text;html=1;align=center;verticalAlign=middle;whiteSpace=wrap;rounded=0;movable=0;resizable=0;rotatable=0;deletable=0;editable=0;locked=1;connectable=0;" vertex="1" parent="1">
          <mxGeometry x="370" y="80" width="650" height="30" as="geometry" />
        </mxCell>
        <mxCell id="__hJ2sdx3PHw_z6o85Sw-40" value="&lt;div&gt;&lt;font style=&quot;font-size: 36px;&quot;&gt;DESIGN SYSTEM&lt;/font&gt;&lt;/div&gt;" style="text;html=1;align=center;verticalAlign=middle;whiteSpace=wrap;rounded=0;movable=0;resizable=0;rotatable=0;deletable=0;editable=0;locked=1;connectable=0;" vertex="1" parent="1">
          <mxGeometry x="270" y="670" width="900" height="160" as="geometry" />
        </mxCell>
        <mxCell id="__hJ2sdx3PHw_z6o85Sw-43" value="" style="edgeStyle=orthogonalEdgeStyle;rounded=0;orthogonalLoop=1;jettySize=auto;html=1;movable=0;resizable=0;rotatable=0;deletable=0;editable=0;locked=1;connectable=0;" edge="1" parent="1" source="__hJ2sdx3PHw_z6o85Sw-41" target="__hJ2sdx3PHw_z6o85Sw-42">
          <mxGeometry relative="1" as="geometry">
            <Array as="points">
              <mxPoint x="-800" y="1035" />
              <mxPoint x="-800" y="1040" />
            </Array>
          </mxGeometry>
        </mxCell>
        <mxCell id="__hJ2sdx3PHw_z6o85Sw-45" value="&lt;font style=&quot;font-size: 18px;&quot;&gt;REQUEST -&amp;gt; &lt;/font&gt;&lt;font style=&quot;font-size: 18px;&quot;&gt;GET /START/:USERiD&lt;br&gt;&lt;/font&gt;" style="edgeLabel;html=1;align=center;verticalAlign=middle;resizable=0;points=[];movable=0;rotatable=0;deletable=0;editable=0;locked=1;connectable=0;" vertex="1" connectable="0" parent="__hJ2sdx3PHw_z6o85Sw-43">
          <mxGeometry x="-0.0173" y="-3" relative="1" as="geometry">
            <mxPoint as="offset" />
          </mxGeometry>
        </mxCell>
        <mxCell id="__hJ2sdx3PHw_z6o85Sw-137" value="" style="edgeStyle=orthogonalEdgeStyle;rounded=0;orthogonalLoop=1;jettySize=auto;html=1;movable=0;resizable=0;rotatable=0;deletable=0;editable=0;locked=1;connectable=0;" edge="1" parent="1" source="__hJ2sdx3PHw_z6o85Sw-41" target="__hJ2sdx3PHw_z6o85Sw-136">
          <mxGeometry relative="1" as="geometry" />
        </mxCell>
        <mxCell id="__hJ2sdx3PHw_z6o85Sw-41" value="&lt;div&gt;&lt;font style=&quot;font-size: 18px;&quot;&gt;SOCKET PAGE&lt;br&gt;&lt;/font&gt;&lt;/div&gt;&lt;div&gt;&lt;font size=&quot;3&quot;&gt;(OPEN CONNECTION)&lt;br&gt;&lt;/font&gt;&lt;/div&gt;" style="whiteSpace=wrap;html=1;aspect=fixed;movable=0;resizable=0;rotatable=0;deletable=0;editable=0;locked=1;connectable=0;" vertex="1" parent="1">
          <mxGeometry x="-1380" y="950" width="170" height="170" as="geometry" />
        </mxCell>
        <mxCell id="__hJ2sdx3PHw_z6o85Sw-47" value="" style="edgeStyle=orthogonalEdgeStyle;rounded=0;orthogonalLoop=1;jettySize=auto;html=1;movable=0;resizable=0;rotatable=0;deletable=0;editable=0;locked=1;connectable=0;" edge="1" parent="1" source="__hJ2sdx3PHw_z6o85Sw-42" target="__hJ2sdx3PHw_z6o85Sw-46">
          <mxGeometry relative="1" as="geometry" />
        </mxCell>
        <mxCell id="__hJ2sdx3PHw_z6o85Sw-70" value="&lt;font style=&quot;font-size: 18px;&quot;&gt;SERVER RUNNING &lt;br&gt;&lt;/font&gt;" style="edgeLabel;html=1;align=center;verticalAlign=middle;resizable=0;points=[];movable=0;rotatable=0;deletable=0;editable=0;locked=1;connectable=0;" vertex="1" connectable="0" parent="__hJ2sdx3PHw_z6o85Sw-47">
          <mxGeometry x="-0.0794" y="3" relative="1" as="geometry">
            <mxPoint y="-347" as="offset" />
          </mxGeometry>
        </mxCell>
        <mxCell id="__hJ2sdx3PHw_z6o85Sw-42" value="&lt;font style=&quot;font-size: 18px;&quot;&gt;API&lt;/font&gt;" style="whiteSpace=wrap;html=1;aspect=fixed;movable=0;resizable=0;rotatable=0;deletable=0;editable=0;locked=1;connectable=0;" vertex="1" parent="1">
          <mxGeometry x="-390" y="940" width="170" height="170" as="geometry" />
        </mxCell>
        <mxCell id="__hJ2sdx3PHw_z6o85Sw-49" value="" style="edgeStyle=orthogonalEdgeStyle;rounded=0;orthogonalLoop=1;jettySize=auto;html=1;movable=0;resizable=0;rotatable=0;deletable=0;editable=0;locked=1;connectable=0;" edge="1" parent="1" source="__hJ2sdx3PHw_z6o85Sw-46" target="__hJ2sdx3PHw_z6o85Sw-48">
          <mxGeometry relative="1" as="geometry" />
        </mxCell>
        <mxCell id="__hJ2sdx3PHw_z6o85Sw-46" value="&lt;div&gt;&lt;font style=&quot;font-size: 18px;&quot;&gt;WEBHOOK&lt;/font&gt;&lt;/div&gt;&lt;div&gt;&lt;font style=&quot;font-size: 18px;&quot;&gt;ENDPOINT&lt;/font&gt;&lt;/div&gt;&lt;div&gt;&lt;font style=&quot;font-size: 18px;&quot;&gt;&lt;br&gt;&lt;/font&gt;&lt;/div&gt;" style="whiteSpace=wrap;html=1;aspect=fixed;movable=0;resizable=0;rotatable=0;deletable=0;editable=0;locked=1;connectable=0;" vertex="1" parent="1">
          <mxGeometry x="-390" y="1430" width="170" height="170" as="geometry" />
        </mxCell>
        <mxCell id="__hJ2sdx3PHw_z6o85Sw-58" value="" style="edgeStyle=orthogonalEdgeStyle;rounded=0;orthogonalLoop=1;jettySize=auto;html=1;movable=0;resizable=0;rotatable=0;deletable=0;editable=0;locked=1;connectable=0;" edge="1" parent="1" source="__hJ2sdx3PHw_z6o85Sw-48" target="__hJ2sdx3PHw_z6o85Sw-57">
          <mxGeometry relative="1" as="geometry" />
        </mxCell>
        <mxCell id="__hJ2sdx3PHw_z6o85Sw-59" value="&lt;font style=&quot;font-size: 18px;&quot;&gt;yes&lt;/font&gt;" style="edgeLabel;html=1;align=center;verticalAlign=middle;resizable=0;points=[];movable=0;rotatable=0;deletable=0;editable=0;locked=1;connectable=0;" vertex="1" connectable="0" parent="__hJ2sdx3PHw_z6o85Sw-58">
          <mxGeometry x="-0.1145" y="3" relative="1" as="geometry">
            <mxPoint x="-1" as="offset" />
          </mxGeometry>
        </mxCell>
        <mxCell id="__hJ2sdx3PHw_z6o85Sw-48" value="&lt;div&gt;&lt;font style=&quot;font-size: 18px;&quot;&gt;ENDPOINT&lt;/font&gt;&lt;/div&gt;&lt;div&gt;&lt;font style=&quot;font-size: 18px;&quot;&gt;CALLED?&lt;/font&gt;&lt;/div&gt;" style="rhombus;whiteSpace=wrap;html=1;movable=0;resizable=0;rotatable=0;deletable=0;editable=0;locked=1;connectable=0;" vertex="1" parent="1">
          <mxGeometry x="120" y="1420" width="220" height="190" as="geometry" />
        </mxCell>
        <mxCell id="__hJ2sdx3PHw_z6o85Sw-50" value="&lt;div&gt;&lt;font style=&quot;font-size: 24px;&quot;&gt;waiting&amp;nbsp;&lt;/font&gt;&lt;/div&gt;&lt;div&gt;&lt;font style=&quot;font-size: 24px;&quot;&gt;process start&lt;/font&gt;&lt;/div&gt;" style="whiteSpace=wrap;html=1;movable=0;resizable=0;rotatable=0;deletable=0;editable=0;locked=1;connectable=0;" vertex="1" parent="1">
          <mxGeometry x="145" y="1860" width="170" height="175" as="geometry" />
        </mxCell>
        <mxCell id="__hJ2sdx3PHw_z6o85Sw-57" value="&lt;div&gt;&lt;font style=&quot;font-size: 18px;&quot;&gt;PROCESS USER &lt;br&gt;&lt;/font&gt;&lt;/div&gt;&lt;div&gt;&lt;font size=&quot;3&quot;&gt;INFORMATION&lt;/font&gt;&lt;/div&gt;&lt;div&gt;&lt;font size=&quot;3&quot;&gt;AND STORE IT&lt;br&gt;&lt;/font&gt;&lt;/div&gt;" style="rounded=1;whiteSpace=wrap;html=1;movable=0;resizable=0;rotatable=0;deletable=0;editable=0;locked=1;connectable=0;" vertex="1" parent="1">
          <mxGeometry x="655" y="1447.5" width="200" height="135" as="geometry" />
        </mxCell>
        <mxCell id="__hJ2sdx3PHw_z6o85Sw-62" value="&lt;font style=&quot;font-size: 18px;&quot;&gt;USERS&lt;/font&gt;" style="swimlane;fontStyle=0;childLayout=stackLayout;horizontal=1;startSize=30;horizontalStack=0;resizeParent=1;resizeParentMax=0;resizeLast=0;collapsible=1;marginBottom=0;whiteSpace=wrap;html=1;movable=0;resizable=0;rotatable=0;deletable=0;editable=0;locked=1;connectable=0;" vertex="1" parent="1">
          <mxGeometry x="1620" y="1460" width="460" height="90" as="geometry" />
        </mxCell>
        <mxCell id="__hJ2sdx3PHw_z6o85Sw-63" value="&lt;font style=&quot;font-size: 18px;&quot;&gt;ID: UUID&lt;/font&gt;" style="text;strokeColor=none;fillColor=none;align=left;verticalAlign=middle;spacingLeft=4;spacingRight=4;overflow=hidden;points=[[0,0.5],[1,0.5]];portConstraint=eastwest;rotatable=0;whiteSpace=wrap;html=1;movable=0;resizable=0;deletable=0;editable=0;locked=1;connectable=0;" vertex="1" parent="__hJ2sdx3PHw_z6o85Sw-62">
          <mxGeometry y="30" width="460" height="30" as="geometry" />
        </mxCell>
        <mxCell id="__hJ2sdx3PHw_z6o85Sw-64" value="&lt;font style=&quot;font-size: 18px;&quot;&gt;DATA: OBJECT&amp;nbsp; &lt;/font&gt;" style="text;strokeColor=none;fillColor=none;align=left;verticalAlign=middle;spacingLeft=4;spacingRight=4;overflow=hidden;points=[[0,0.5],[1,0.5]];portConstraint=eastwest;rotatable=0;whiteSpace=wrap;html=1;movable=0;resizable=0;deletable=0;editable=0;locked=1;connectable=0;" vertex="1" parent="__hJ2sdx3PHw_z6o85Sw-62">
          <mxGeometry y="60" width="460" height="30" as="geometry" />
        </mxCell>
        <mxCell id="__hJ2sdx3PHw_z6o85Sw-66" value="" style="endArrow=classic;html=1;rounded=0;entryX=0;entryY=0.5;entryDx=0;entryDy=0;movable=0;resizable=0;rotatable=0;deletable=0;editable=0;locked=1;connectable=0;" edge="1" parent="1" target="__hJ2sdx3PHw_z6o85Sw-64">
          <mxGeometry relative="1" as="geometry">
            <mxPoint x="860" y="1530" as="sourcePoint" />
            <mxPoint x="1351.8400000000001" y="1500.33" as="targetPoint" />
            <Array as="points" />
          </mxGeometry>
        </mxCell>
        <mxCell id="__hJ2sdx3PHw_z6o85Sw-67" value="&lt;font style=&quot;font-size: 18px;&quot;&gt;STORE DATA&lt;br&gt;&lt;/font&gt;" style="edgeLabel;resizable=0;html=1;;align=center;verticalAlign=middle;movable=0;rotatable=0;deletable=0;editable=0;locked=1;connectable=0;" connectable="0" vertex="1" parent="__hJ2sdx3PHw_z6o85Sw-66">
          <mxGeometry relative="1" as="geometry" />
        </mxCell>
        <mxCell id="__hJ2sdx3PHw_z6o85Sw-69" value="&lt;font style=&quot;font-size: 18px;&quot;&gt;CLIENT&lt;/font&gt;" style="text;html=1;align=center;verticalAlign=middle;whiteSpace=wrap;rounded=0;movable=0;resizable=0;rotatable=0;deletable=0;editable=0;locked=1;connectable=0;" vertex="1" parent="1">
          <mxGeometry x="-1330" y="910" width="60" height="30" as="geometry" />
        </mxCell>
        <mxCell id="__hJ2sdx3PHw_z6o85Sw-101" value="" style="edgeStyle=orthogonalEdgeStyle;rounded=0;orthogonalLoop=1;jettySize=auto;html=1;movable=0;resizable=0;rotatable=0;deletable=0;editable=0;locked=1;connectable=0;" edge="1" parent="1" source="__hJ2sdx3PHw_z6o85Sw-71" target="__hJ2sdx3PHw_z6o85Sw-100">
          <mxGeometry relative="1" as="geometry" />
        </mxCell>
        <mxCell id="__hJ2sdx3PHw_z6o85Sw-71" value="&lt;div&gt;&lt;font style=&quot;font-size: 18px;&quot;&gt;CALL METHOD TO DEFINE TIMEOUT IN BACKGROUND AND &lt;br&gt;&lt;/font&gt;&lt;/div&gt;&lt;div&gt;&lt;font size=&quot;3&quot;&gt;RETURN 200&lt;/font&gt;&lt;/div&gt;" style="whiteSpace=wrap;html=1;aspect=fixed;movable=0;resizable=0;rotatable=0;deletable=0;editable=0;locked=1;connectable=0;" vertex="1" parent="1">
          <mxGeometry x="106.56" y="940" width="170" height="170" as="geometry" />
        </mxCell>
        <mxCell id="__hJ2sdx3PHw_z6o85Sw-74" value="" style="endArrow=classic;html=1;rounded=0;entryX=1;entryY=0.75;entryDx=0;entryDy=0;exitX=0;exitY=1;exitDx=0;exitDy=0;movable=0;resizable=0;rotatable=0;deletable=0;editable=0;locked=1;connectable=0;" edge="1" parent="1" source="__hJ2sdx3PHw_z6o85Sw-62" target="__hJ2sdx3PHw_z6o85Sw-57">
          <mxGeometry relative="1" as="geometry">
            <mxPoint x="750" y="1710" as="sourcePoint" />
            <mxPoint x="850" y="1710" as="targetPoint" />
          </mxGeometry>
        </mxCell>
        <mxCell id="__hJ2sdx3PHw_z6o85Sw-75" value="&lt;font style=&quot;font-size: 18px;&quot;&gt;success response&lt;br&gt;&lt;/font&gt;" style="edgeLabel;resizable=0;html=1;;align=center;verticalAlign=middle;movable=0;rotatable=0;deletable=0;editable=0;locked=1;connectable=0;" connectable="0" vertex="1" parent="__hJ2sdx3PHw_z6o85Sw-74">
          <mxGeometry relative="1" as="geometry" />
        </mxCell>
        <mxCell id="__hJ2sdx3PHw_z6o85Sw-76" value="&lt;div&gt;&lt;font style=&quot;font-size: 18px;&quot;&gt;SEND&amp;nbsp; WEBSOCKET MESSAGE: &lt;br&gt;&lt;/font&gt;&lt;/div&gt;&lt;div&gt;&lt;font size=&quot;3&quot;&gt;&lt;br&gt;&lt;/font&gt;&lt;/div&gt;&lt;div&gt;&lt;font size=&quot;3&quot;&gt;PROCESSED_USER_ID&lt;br&gt;&lt;/font&gt;&lt;/div&gt;" style="ellipse;whiteSpace=wrap;html=1;rounded=1;movable=0;resizable=0;rotatable=0;deletable=0;editable=0;locked=1;connectable=0;" vertex="1" parent="1">
          <mxGeometry x="2780" y="1270" width="226.87" height="212.5" as="geometry" />
        </mxCell>
        <mxCell id="__hJ2sdx3PHw_z6o85Sw-79" value="" style="endArrow=classic;html=1;rounded=0;entryX=0;entryY=0.5;entryDx=0;entryDy=0;movable=0;resizable=0;rotatable=0;deletable=0;editable=0;locked=1;connectable=0;" edge="1" parent="1">
          <mxGeometry relative="1" as="geometry">
            <mxPoint x="855" y="1470" as="sourcePoint" />
            <mxPoint x="1615" y="1475" as="targetPoint" />
            <Array as="points" />
          </mxGeometry>
        </mxCell>
        <mxCell id="__hJ2sdx3PHw_z6o85Sw-80" value="&lt;font style=&quot;font-size: 18px;&quot;&gt;GET USER&lt;/font&gt;" style="edgeLabel;resizable=0;html=1;;align=center;verticalAlign=middle;movable=0;rotatable=0;deletable=0;editable=0;locked=1;connectable=0;" connectable="0" vertex="1" parent="__hJ2sdx3PHw_z6o85Sw-79">
          <mxGeometry relative="1" as="geometry" />
        </mxCell>
        <mxCell id="__hJ2sdx3PHw_z6o85Sw-81" value="" style="endArrow=classic;html=1;rounded=0;entryX=1;entryY=0.75;entryDx=0;entryDy=0;exitX=0;exitY=1;exitDx=0;exitDy=0;movable=0;resizable=0;rotatable=0;deletable=0;editable=0;locked=1;connectable=0;" edge="1" parent="1">
          <mxGeometry relative="1" as="geometry">
            <mxPoint x="1615" y="1491" as="sourcePoint" />
            <mxPoint x="850" y="1490" as="targetPoint" />
          </mxGeometry>
        </mxCell>
        <mxCell id="__hJ2sdx3PHw_z6o85Sw-82" value="&lt;font style=&quot;font-size: 18px;&quot;&gt;success response&lt;br&gt;&lt;/font&gt;" style="edgeLabel;resizable=0;html=1;;align=center;verticalAlign=middle;movable=0;rotatable=0;deletable=0;editable=0;locked=1;connectable=0;" connectable="0" vertex="1" parent="__hJ2sdx3PHw_z6o85Sw-81">
          <mxGeometry relative="1" as="geometry" />
        </mxCell>
        <mxCell id="__hJ2sdx3PHw_z6o85Sw-83" value="" style="endArrow=classic;html=1;rounded=0;entryX=1.022;entryY=0.838;entryDx=0;entryDy=0;entryPerimeter=0;exitX=0.005;exitY=0.908;exitDx=0;exitDy=0;exitPerimeter=0;movable=0;resizable=0;rotatable=0;deletable=0;editable=0;locked=1;connectable=0;" edge="1" parent="1" source="__hJ2sdx3PHw_z6o85Sw-42" target="__hJ2sdx3PHw_z6o85Sw-41">
          <mxGeometry width="50" height="50" relative="1" as="geometry">
            <mxPoint x="-580" y="1250" as="sourcePoint" />
            <mxPoint x="-530" y="1200" as="targetPoint" />
          </mxGeometry>
        </mxCell>
        <mxCell id="__hJ2sdx3PHw_z6o85Sw-84" value="&lt;font style=&quot;font-size: 18px;&quot;&gt;INSTANT &lt;/font&gt;&lt;font style=&quot;font-size: 18px;&quot;&gt;RESPONSE 200&lt;/font&gt;" style="edgeLabel;html=1;align=center;verticalAlign=middle;resizable=0;points=[];movable=0;rotatable=0;deletable=0;editable=0;locked=1;connectable=0;" vertex="1" connectable="0" parent="__hJ2sdx3PHw_z6o85Sw-83">
          <mxGeometry x="-0.0022" y="-1" relative="1" as="geometry">
            <mxPoint as="offset" />
          </mxGeometry>
        </mxCell>
        <mxCell id="__hJ2sdx3PHw_z6o85Sw-85" value="" style="endArrow=classic;startArrow=classic;html=1;rounded=0;exitX=1.008;exitY=0.571;exitDx=0;exitDy=0;exitPerimeter=0;entryX=-0.001;entryY=0.571;entryDx=0;entryDy=0;entryPerimeter=0;movable=0;resizable=0;rotatable=0;deletable=0;editable=0;locked=1;connectable=0;" edge="1" parent="1" source="__hJ2sdx3PHw_z6o85Sw-42" target="__hJ2sdx3PHw_z6o85Sw-71">
          <mxGeometry width="50" height="50" relative="1" as="geometry">
            <mxPoint x="90" y="1210" as="sourcePoint" />
            <mxPoint x="140" y="1160" as="targetPoint" />
          </mxGeometry>
        </mxCell>
        <mxCell id="__hJ2sdx3PHw_z6o85Sw-88" value="&lt;font style=&quot;font-size: 18px;&quot;&gt;PROCESS TIMEOUT&lt;br&gt;&lt;/font&gt;" style="whiteSpace=wrap;html=1;aspect=fixed;movable=0;resizable=0;rotatable=0;deletable=0;editable=0;locked=1;connectable=0;" vertex="1" parent="1">
          <mxGeometry x="740" y="940" width="170" height="170" as="geometry" />
        </mxCell>
        <mxCell id="__hJ2sdx3PHw_z6o85Sw-93" value="" style="curved=1;endArrow=classic;html=1;rounded=0;entryX=0.397;entryY=-0.01;entryDx=0;entryDy=0;entryPerimeter=0;exitX=1;exitY=0.353;exitDx=0;exitDy=0;exitPerimeter=0;movable=0;resizable=0;rotatable=0;deletable=0;editable=0;locked=1;connectable=0;" edge="1" parent="1" source="__hJ2sdx3PHw_z6o85Sw-88" target="__hJ2sdx3PHw_z6o85Sw-62">
          <mxGeometry width="50" height="50" relative="1" as="geometry">
            <mxPoint x="910" y="1000" as="sourcePoint" />
            <mxPoint x="1250" y="1270" as="targetPoint" />
            <Array as="points">
              <mxPoint x="1530" y="1040" />
              <mxPoint x="1450" y="1200" />
              <mxPoint x="1560" y="1390" />
            </Array>
          </mxGeometry>
        </mxCell>
        <mxCell id="__hJ2sdx3PHw_z6o85Sw-94" value="&lt;font style=&quot;font-size: 18px;&quot;&gt;GET USER&lt;/font&gt;" style="edgeLabel;html=1;align=center;verticalAlign=middle;resizable=0;points=[];movable=0;rotatable=0;deletable=0;editable=0;locked=1;connectable=0;" vertex="1" connectable="0" parent="__hJ2sdx3PHw_z6o85Sw-93">
          <mxGeometry x="-0.4822" y="-21" relative="1" as="geometry">
            <mxPoint x="268" y="218" as="offset" />
          </mxGeometry>
        </mxCell>
        <mxCell id="__hJ2sdx3PHw_z6o85Sw-95" value="" style="curved=1;endArrow=classic;html=1;rounded=0;entryX=0.986;entryY=0.359;entryDx=0;entryDy=0;entryPerimeter=0;movable=0;resizable=0;rotatable=0;deletable=0;editable=0;locked=1;connectable=0;" edge="1" parent="1" source="__hJ2sdx3PHw_z6o85Sw-62" target="__hJ2sdx3PHw_z6o85Sw-88">
          <mxGeometry width="50" height="50" relative="1" as="geometry">
            <mxPoint x="1798.4800000000005" y="1513.7199999999998" as="sourcePoint" />
            <mxPoint x="910" y="1040" as="targetPoint" />
            <Array as="points">
              <mxPoint x="1390" y="1300" />
              <mxPoint x="1470" y="1157.5" />
              <mxPoint x="1400" y="1077.5" />
              <mxPoint x="940" y="1010" />
            </Array>
          </mxGeometry>
        </mxCell>
        <mxCell id="__hJ2sdx3PHw_z6o85Sw-96" value="&lt;font style=&quot;font-size: 18px;&quot;&gt;SUCCESS RESPONSE&lt;br&gt;&lt;/font&gt;" style="edgeLabel;html=1;align=center;verticalAlign=middle;resizable=0;points=[];movable=0;rotatable=0;deletable=0;editable=0;locked=1;connectable=0;" vertex="1" connectable="0" parent="__hJ2sdx3PHw_z6o85Sw-95">
          <mxGeometry x="0.4368" y="35" relative="1" as="geometry">
            <mxPoint x="145" y="14" as="offset" />
          </mxGeometry>
        </mxCell>
        <mxCell id="__hJ2sdx3PHw_z6o85Sw-100" value="&lt;div&gt;&lt;font style=&quot;font-size: 18px;&quot;&gt;TIME TO START&lt;/font&gt;&lt;/div&gt;&lt;div&gt;&lt;font size=&quot;3&quot;&gt;&amp;nbsp;METHOD PASSED?&lt;/font&gt;&lt;/div&gt;" style="rhombus;whiteSpace=wrap;html=1;movable=0;resizable=0;rotatable=0;deletable=0;editable=0;locked=1;connectable=0;" vertex="1" parent="1">
          <mxGeometry x="400" y="930" width="200" height="190" as="geometry" />
        </mxCell>
        <mxCell id="__hJ2sdx3PHw_z6o85Sw-104" value="" style="endArrow=classic;html=1;rounded=0;entryX=0;entryY=0.5;entryDx=0;entryDy=0;movable=0;resizable=0;rotatable=0;deletable=0;editable=0;locked=1;connectable=0;" edge="1" parent="1" target="__hJ2sdx3PHw_z6o85Sw-88">
          <mxGeometry relative="1" as="geometry">
            <mxPoint x="605" y="1024.52" as="sourcePoint" />
            <mxPoint x="705" y="1024.52" as="targetPoint" />
          </mxGeometry>
        </mxCell>
        <mxCell id="__hJ2sdx3PHw_z6o85Sw-105" value="&lt;font style=&quot;font-size: 18px;&quot;&gt;YES&lt;/font&gt;" style="edgeLabel;resizable=0;html=1;;align=center;verticalAlign=middle;movable=0;rotatable=0;deletable=0;editable=0;locked=1;connectable=0;" connectable="0" vertex="1" parent="__hJ2sdx3PHw_z6o85Sw-104">
          <mxGeometry relative="1" as="geometry" />
        </mxCell>
        <mxCell id="__hJ2sdx3PHw_z6o85Sw-106" value="&lt;div&gt;&lt;font style=&quot;font-size: 24px;&quot;&gt;waiting&amp;nbsp;&lt;/font&gt;&lt;/div&gt;&lt;div&gt;&lt;font style=&quot;font-size: 24px;&quot;&gt;process start&lt;/font&gt;&lt;/div&gt;" style="whiteSpace=wrap;html=1;movable=0;resizable=0;rotatable=0;deletable=0;editable=0;locked=1;connectable=0;" vertex="1" parent="1">
          <mxGeometry x="420" y="1300" width="160" height="95" as="geometry" />
        </mxCell>
        <mxCell id="__hJ2sdx3PHw_z6o85Sw-113" value="" style="endArrow=classic;startArrow=classic;html=1;rounded=0;entryX=0.5;entryY=1;entryDx=0;entryDy=0;movable=0;resizable=0;rotatable=0;deletable=0;editable=0;locked=1;connectable=0;" edge="1" parent="1" source="__hJ2sdx3PHw_z6o85Sw-106" target="__hJ2sdx3PHw_z6o85Sw-100">
          <mxGeometry width="50" height="50" relative="1" as="geometry">
            <mxPoint x="460" y="1240" as="sourcePoint" />
            <mxPoint x="510" y="1190" as="targetPoint" />
          </mxGeometry>
        </mxCell>
        <mxCell id="__hJ2sdx3PHw_z6o85Sw-115" value="&lt;font style=&quot;font-size: 18px;&quot;&gt;NO&lt;/font&gt;" style="edgeLabel;html=1;align=center;verticalAlign=middle;resizable=0;points=[];movable=0;rotatable=0;deletable=0;editable=0;locked=1;connectable=0;" vertex="1" connectable="0" parent="__hJ2sdx3PHw_z6o85Sw-113">
          <mxGeometry x="0.016" relative="1" as="geometry">
            <mxPoint as="offset" />
          </mxGeometry>
        </mxCell>
        <mxCell id="__hJ2sdx3PHw_z6o85Sw-116" value="" style="endArrow=classic;startArrow=classic;html=1;rounded=0;entryX=0.5;entryY=1;entryDx=0;entryDy=0;exitX=0.5;exitY=0;exitDx=0;exitDy=0;movable=0;resizable=0;rotatable=0;deletable=0;editable=0;locked=1;connectable=0;" edge="1" parent="1" source="__hJ2sdx3PHw_z6o85Sw-50" target="__hJ2sdx3PHw_z6o85Sw-48">
          <mxGeometry width="50" height="50" relative="1" as="geometry">
            <mxPoint x="170" y="1740" as="sourcePoint" />
            <mxPoint x="220" y="1690" as="targetPoint" />
          </mxGeometry>
        </mxCell>
        <mxCell id="__hJ2sdx3PHw_z6o85Sw-117" value="&lt;font style=&quot;font-size: 18px;&quot;&gt;NO&lt;/font&gt;" style="edgeLabel;html=1;align=center;verticalAlign=middle;resizable=0;points=[];movable=0;rotatable=0;deletable=0;editable=0;locked=1;connectable=0;" vertex="1" connectable="0" parent="__hJ2sdx3PHw_z6o85Sw-116">
          <mxGeometry x="0.0204" y="-1" relative="1" as="geometry">
            <mxPoint as="offset" />
          </mxGeometry>
        </mxCell>
        <mxCell id="__hJ2sdx3PHw_z6o85Sw-119" value="" style="curved=1;endArrow=classic;html=1;rounded=0;exitX=0.5;exitY=1;exitDx=0;exitDy=0;entryX=0.375;entryY=0.953;entryDx=0;entryDy=0;entryPerimeter=0;movable=0;resizable=0;rotatable=0;deletable=0;editable=0;locked=1;connectable=0;" edge="1" parent="1" source="__hJ2sdx3PHw_z6o85Sw-57" target="__hJ2sdx3PHw_z6o85Sw-76">
          <mxGeometry width="50" height="50" relative="1" as="geometry">
            <mxPoint x="1240" y="1670" as="sourcePoint" />
            <mxPoint x="3150" y="1340" as="targetPoint" />
            <Array as="points">
              <mxPoint x="1430" y="1690" />
              <mxPoint x="2120" y="1700" />
              <mxPoint x="2690" y="1590" />
            </Array>
          </mxGeometry>
        </mxCell>
        <mxCell id="__hJ2sdx3PHw_z6o85Sw-125" value="" style="edgeStyle=orthogonalEdgeStyle;rounded=0;orthogonalLoop=1;jettySize=auto;html=1;movable=0;resizable=0;rotatable=0;deletable=0;editable=0;locked=1;connectable=0;" edge="1" parent="1" source="__hJ2sdx3PHw_z6o85Sw-121" target="__hJ2sdx3PHw_z6o85Sw-126">
          <mxGeometry relative="1" as="geometry">
            <mxPoint x="2860" y="915" as="targetPoint" />
            <Array as="points" />
          </mxGeometry>
        </mxCell>
        <mxCell id="__hJ2sdx3PHw_z6o85Sw-130" value="&lt;font style=&quot;font-size: 18px;&quot;&gt;NO&lt;/font&gt;" style="edgeLabel;html=1;align=center;verticalAlign=middle;resizable=0;points=[];movable=0;rotatable=0;deletable=0;editable=0;locked=1;connectable=0;" vertex="1" connectable="0" parent="__hJ2sdx3PHw_z6o85Sw-125">
          <mxGeometry x="0.1446" y="-5" relative="1" as="geometry">
            <mxPoint as="offset" />
          </mxGeometry>
        </mxCell>
        <mxCell id="__hJ2sdx3PHw_z6o85Sw-121" value="&lt;font style=&quot;font-size: 18px;&quot;&gt;HAS USER DATA?&lt;br&gt;&lt;/font&gt;" style="rhombus;whiteSpace=wrap;html=1;movable=0;resizable=0;rotatable=0;deletable=0;editable=0;locked=1;connectable=0;" vertex="1" parent="1">
          <mxGeometry x="1980" y="910" width="270" height="230" as="geometry" />
        </mxCell>
        <mxCell id="__hJ2sdx3PHw_z6o85Sw-126" value="&lt;div&gt;&lt;font style=&quot;font-size: 18px;&quot;&gt;SEND&amp;nbsp; WEBSOCKET MESSAGE: &lt;br&gt;&lt;/font&gt;&lt;/div&gt;&lt;div&gt;&lt;font size=&quot;3&quot;&gt;&lt;br&gt;&lt;/font&gt;&lt;/div&gt;&lt;div&gt;&lt;font size=&quot;3&quot;&gt;TIMEOUT_USER_ID&lt;br&gt;&lt;/font&gt;&lt;/div&gt;" style="ellipse;whiteSpace=wrap;html=1;rounded=1;movable=0;resizable=0;rotatable=0;deletable=0;editable=0;locked=1;connectable=0;" vertex="1" parent="1">
          <mxGeometry x="2760" y="918.75" width="226.87" height="212.5" as="geometry" />
        </mxCell>
        <mxCell id="__hJ2sdx3PHw_z6o85Sw-128" value="" style="endArrow=classic;html=1;rounded=0;exitX=0.986;exitY=0.366;exitDx=0;exitDy=0;exitPerimeter=0;movable=0;resizable=0;rotatable=0;deletable=0;editable=0;locked=1;connectable=0;" edge="1" parent="1" source="__hJ2sdx3PHw_z6o85Sw-88" target="__hJ2sdx3PHw_z6o85Sw-121">
          <mxGeometry relative="1" as="geometry">
            <mxPoint x="1620" y="920" as="sourcePoint" />
            <mxPoint x="1720" y="920" as="targetPoint" />
          </mxGeometry>
        </mxCell>
        <mxCell id="__hJ2sdx3PHw_z6o85Sw-133" value="" style="endArrow=classic;html=1;rounded=0;entryX=0;entryY=0.612;entryDx=0;entryDy=0;entryPerimeter=0;movable=0;resizable=0;rotatable=0;deletable=0;editable=0;locked=1;connectable=0;" edge="1" parent="1" source="__hJ2sdx3PHw_z6o85Sw-121" target="__hJ2sdx3PHw_z6o85Sw-76">
          <mxGeometry width="50" height="50" relative="1" as="geometry">
            <mxPoint x="1600" y="1730" as="sourcePoint" />
            <mxPoint x="1650" y="1680" as="targetPoint" />
          </mxGeometry>
        </mxCell>
        <mxCell id="__hJ2sdx3PHw_z6o85Sw-134" value="&lt;font style=&quot;font-size: 18px;&quot;&gt;YES&lt;br&gt;&lt;/font&gt;" style="edgeLabel;html=1;align=center;verticalAlign=middle;resizable=0;points=[];movable=0;rotatable=0;deletable=0;editable=0;locked=1;connectable=0;" vertex="1" connectable="0" parent="__hJ2sdx3PHw_z6o85Sw-133">
          <mxGeometry x="0.0508" y="3" relative="1" as="geometry">
            <mxPoint x="1" as="offset" />
          </mxGeometry>
        </mxCell>
        <mxCell id="__hJ2sdx3PHw_z6o85Sw-147" value="" style="edgeStyle=orthogonalEdgeStyle;rounded=0;orthogonalLoop=1;jettySize=auto;html=1;movable=0;resizable=0;rotatable=0;deletable=0;editable=0;locked=1;connectable=0;" edge="1" parent="1" source="__hJ2sdx3PHw_z6o85Sw-136">
          <mxGeometry relative="1" as="geometry">
            <mxPoint x="-949.9453231790667" y="1378.3333333333335" as="targetPoint" />
          </mxGeometry>
        </mxCell>
        <mxCell id="__hJ2sdx3PHw_z6o85Sw-148" value="&lt;font style=&quot;font-size: 18px;&quot;&gt;YES&lt;/font&gt;" style="edgeLabel;html=1;align=center;verticalAlign=middle;resizable=0;points=[];movable=0;rotatable=0;deletable=0;editable=0;locked=1;connectable=0;" vertex="1" connectable="0" parent="__hJ2sdx3PHw_z6o85Sw-147">
          <mxGeometry x="-0.0813" y="-1" relative="1" as="geometry">
            <mxPoint as="offset" />
          </mxGeometry>
        </mxCell>
        <mxCell id="__hJ2sdx3PHw_z6o85Sw-136" value="RECEIVED SOCKET MESSAGE?" style="rhombus;whiteSpace=wrap;html=1;movable=0;resizable=0;rotatable=0;deletable=0;editable=0;locked=1;connectable=0;" vertex="1" parent="1">
          <mxGeometry x="-1376.25" y="1307.5" width="162.5" height="140" as="geometry" />
        </mxCell>
        <mxCell id="__hJ2sdx3PHw_z6o85Sw-138" value="&lt;font style=&quot;font-size: 18px;&quot;&gt;SPINNER &lt;/font&gt;&lt;font style=&quot;font-size: 18px;&quot;&gt;LOADER&lt;br&gt;&lt;/font&gt;" style="whiteSpace=wrap;html=1;movable=0;resizable=0;rotatable=0;deletable=0;editable=0;locked=1;connectable=0;" vertex="1" parent="1">
          <mxGeometry x="-1373.75" y="1640" width="147.5" height="70" as="geometry" />
        </mxCell>
        <mxCell id="__hJ2sdx3PHw_z6o85Sw-141" value="" style="endArrow=classic;startArrow=classic;html=1;rounded=0;entryX=0.493;entryY=0.977;entryDx=0;entryDy=0;entryPerimeter=0;movable=0;resizable=0;rotatable=0;deletable=0;editable=0;locked=1;connectable=0;" edge="1" parent="1" source="__hJ2sdx3PHw_z6o85Sw-138" target="__hJ2sdx3PHw_z6o85Sw-136">
          <mxGeometry width="50" height="50" relative="1" as="geometry">
            <mxPoint x="-1340" y="1600" as="sourcePoint" />
            <mxPoint x="-1290" y="1550" as="targetPoint" />
          </mxGeometry>
        </mxCell>
        <mxCell id="__hJ2sdx3PHw_z6o85Sw-149" value="&lt;font style=&quot;font-size: 18px;&quot;&gt;NO&lt;/font&gt;" style="edgeLabel;html=1;align=center;verticalAlign=middle;resizable=0;points=[];movable=0;rotatable=0;deletable=0;editable=0;locked=1;connectable=0;" vertex="1" connectable="0" parent="__hJ2sdx3PHw_z6o85Sw-141">
          <mxGeometry x="0.0364" y="2" relative="1" as="geometry">
            <mxPoint as="offset" />
          </mxGeometry>
        </mxCell>
        <mxCell id="__hJ2sdx3PHw_z6o85Sw-154" value="" style="edgeStyle=orthogonalEdgeStyle;rounded=0;orthogonalLoop=1;jettySize=auto;html=1;movable=0;resizable=0;rotatable=0;deletable=0;editable=0;locked=1;connectable=0;" edge="1" parent="1" source="__hJ2sdx3PHw_z6o85Sw-150" target="__hJ2sdx3PHw_z6o85Sw-153">
          <mxGeometry relative="1" as="geometry" />
        </mxCell>
        <mxCell id="__hJ2sdx3PHw_z6o85Sw-150" value="&lt;div&gt;PROCESS&lt;/div&gt;&lt;div&gt;MESSAGE&lt;br&gt;&lt;/div&gt;" style="whiteSpace=wrap;html=1;aspect=fixed;movable=0;resizable=0;rotatable=0;deletable=0;editable=0;locked=1;connectable=0;" vertex="1" parent="1">
          <mxGeometry x="-950" y="1320" width="100" height="100" as="geometry" />
        </mxCell>
        <mxCell id="__hJ2sdx3PHw_z6o85Sw-156" value="" style="edgeStyle=orthogonalEdgeStyle;rounded=0;orthogonalLoop=1;jettySize=auto;html=1;movable=0;resizable=0;rotatable=0;deletable=0;editable=0;locked=1;connectable=0;" edge="1" parent="1" source="__hJ2sdx3PHw_z6o85Sw-153" target="__hJ2sdx3PHw_z6o85Sw-155">
          <mxGeometry relative="1" as="geometry" />
        </mxCell>
        <mxCell id="__hJ2sdx3PHw_z6o85Sw-157" value="&lt;font style=&quot;font-size: 18px;&quot;&gt;YES&lt;/font&gt;" style="edgeLabel;html=1;align=center;verticalAlign=middle;resizable=0;points=[];movable=0;rotatable=0;deletable=0;editable=0;locked=1;connectable=0;" vertex="1" connectable="0" parent="__hJ2sdx3PHw_z6o85Sw-156">
          <mxGeometry x="-0.3031" y="1" relative="1" as="geometry">
            <mxPoint as="offset" />
          </mxGeometry>
        </mxCell>
        <mxCell id="__hJ2sdx3PHw_z6o85Sw-159" value="" style="edgeStyle=orthogonalEdgeStyle;rounded=0;orthogonalLoop=1;jettySize=auto;html=1;movable=0;resizable=0;rotatable=0;deletable=0;editable=0;locked=1;connectable=0;" edge="1" parent="1" source="__hJ2sdx3PHw_z6o85Sw-153" target="__hJ2sdx3PHw_z6o85Sw-158">
          <mxGeometry relative="1" as="geometry" />
        </mxCell>
        <mxCell id="__hJ2sdx3PHw_z6o85Sw-160" value="&lt;font style=&quot;font-size: 18px;&quot;&gt;NO&lt;/font&gt;" style="edgeLabel;html=1;align=center;verticalAlign=middle;resizable=0;points=[];movable=0;rotatable=0;deletable=0;editable=0;locked=1;connectable=0;" vertex="1" connectable="0" parent="__hJ2sdx3PHw_z6o85Sw-159">
          <mxGeometry x="0.0487" y="-1" relative="1" as="geometry">
            <mxPoint as="offset" />
          </mxGeometry>
        </mxCell>
        <mxCell id="__hJ2sdx3PHw_z6o85Sw-153" value="&lt;div&gt;IS TIMEOUT &lt;br&gt;&lt;/div&gt;&lt;div&gt;MESSAGE?&lt;/div&gt;" style="rhombus;whiteSpace=wrap;html=1;movable=0;resizable=0;rotatable=0;deletable=0;editable=0;locked=1;connectable=0;" vertex="1" parent="1">
          <mxGeometry x="-955" y="1520" width="110" height="107.5" as="geometry" />
        </mxCell>
        <mxCell id="__hJ2sdx3PHw_z6o85Sw-155" value="TIMEOUT PAGE" style="whiteSpace=wrap;html=1;movable=0;resizable=0;rotatable=0;deletable=0;editable=0;locked=1;connectable=0;" vertex="1" parent="1">
          <mxGeometry x="-960" y="1760" width="120" height="60" as="geometry" />
        </mxCell>
        <mxCell id="__hJ2sdx3PHw_z6o85Sw-158" value="NEXT PAGE" style="whiteSpace=wrap;html=1;movable=0;resizable=0;rotatable=0;deletable=0;editable=0;locked=1;connectable=0;" vertex="1" parent="1">
          <mxGeometry x="-710" y="1760" width="120" height="60" as="geometry" />
        </mxCell>
      </root>
    </mxGraphModel>
  </diagram>
</mxfile>
